<svg width="426" height="55" viewBox="0 0 426 55" fill="none" xmlns="http://www.w3.org/2000/svg">
<rect x="0.5" y="0.5" width="202" height="54" rx="7.5" fill="white"/>
<g clip-path="url(#clip0_919_247)">
<path d="M59.9193 25.6667H64.5026L59.0026 31.1667L53.5026 25.6667H58.0859V19.25H59.9193V25.6667ZM51.6693 33.9167H66.3359V27.5H68.1693V34.8333C68.1693 35.0764 68.0727 35.3096 67.9008 35.4815C67.7289 35.6534 67.4957 35.75 67.2526 35.75H50.7526C50.5095 35.75 50.2763 35.6534 50.1044 35.4815C49.9325 35.3096 49.8359 35.0764 49.8359 34.8333V27.5H51.6693V33.9167Z" fill="#2F80ED"/>
</g>
<path d="M82.88 20.544C83.432 20.436 83.966 20.352 84.482 20.292C84.998 20.22 85.586 20.184 86.246 20.184C87.218 20.184 88.016 20.334 88.64 20.634C89.276 20.922 89.75 21.306 90.062 21.786C90.374 22.254 90.53 22.758 90.53 23.298C90.53 24.114 90.302 24.78 89.846 25.296C89.39 25.8 88.718 26.184 87.83 26.448C88.502 26.7 89.054 27.06 89.486 27.528C89.918 27.996 90.134 28.602 90.134 29.346C90.134 30.21 89.876 30.93 89.36 31.506C88.844 32.082 88.16 32.514 87.308 32.802C86.468 33.078 85.556 33.216 84.572 33.216C83.72 33.216 82.976 33.15 82.34 33.018C81.704 32.898 81.176 32.772 80.756 32.64L82.88 20.544ZM86.174 21.534C85.802 21.534 85.472 21.546 85.184 21.57C84.896 21.594 84.632 21.63 84.392 21.678L83.654 25.836H85.418C86.582 25.836 87.446 25.608 88.01 25.152C88.574 24.684 88.856 24.144 88.856 23.532C88.856 22.968 88.628 22.494 88.172 22.11C87.728 21.726 87.062 21.534 86.174 21.534ZM83.42 27.168L82.664 31.542C83.3 31.71 83.978 31.794 84.698 31.794C85.874 31.794 86.78 31.572 87.416 31.128C88.064 30.672 88.388 30.096 88.388 29.4C88.388 28.992 88.274 28.62 88.046 28.284C87.818 27.948 87.452 27.678 86.948 27.474C86.456 27.27 85.802 27.168 84.986 27.168H83.42ZM93.2334 26.268C93.2454 26.208 93.2514 26.142 93.2514 26.07C93.2634 25.986 93.2694 25.902 93.2694 25.818C93.2694 25.482 93.1734 25.248 92.9814 25.116C92.7894 24.972 92.5374 24.9 92.2254 24.9L92.7834 23.64C93.4194 23.64 93.9054 23.796 94.2414 24.108C94.5894 24.408 94.7634 24.858 94.7634 25.458V25.818C95.1114 24.966 95.5554 24.354 96.0954 23.982C96.6474 23.61 97.2714 23.424 97.9674 23.424C98.2434 23.424 98.4774 23.448 98.6694 23.496C98.8734 23.532 99.0414 23.58 99.1734 23.64L98.4534 25.224C98.3094 25.164 98.1594 25.122 98.0034 25.098C97.8474 25.074 97.6674 25.062 97.4634 25.062C97.0314 25.062 96.5994 25.218 96.1674 25.53C95.7474 25.83 95.3634 26.334 95.0154 27.042C94.6794 27.75 94.4034 28.722 94.1874 29.958L93.6654 33H92.0454L93.2334 26.268ZM103.233 33.216C102.345 33.216 101.577 33.036 100.929 32.676C100.281 32.316 99.7765 31.818 99.4165 31.182C99.0685 30.534 98.8945 29.802 98.8945 28.986C98.8945 27.942 99.1045 27 99.5245 26.16C99.9565 25.32 100.557 24.654 101.325 24.162C102.093 23.67 102.999 23.424 104.043 23.424C104.931 23.424 105.699 23.604 106.347 23.964C106.995 24.324 107.493 24.822 107.841 25.458C108.201 26.094 108.381 26.826 108.381 27.654C108.381 28.686 108.171 29.628 107.751 30.48C107.331 31.32 106.731 31.986 105.951 32.478C105.183 32.97 104.277 33.216 103.233 33.216ZM103.287 31.776C104.007 31.776 104.619 31.602 105.123 31.254C105.639 30.894 106.035 30.414 106.311 29.814C106.587 29.214 106.725 28.542 106.725 27.798C106.725 27.246 106.617 26.754 106.401 26.322C106.185 25.878 105.873 25.524 105.465 25.26C105.057 24.996 104.565 24.864 103.989 24.864C103.281 24.864 102.669 25.044 102.153 25.404C101.637 25.752 101.241 26.226 100.965 26.826C100.689 27.426 100.551 28.098 100.551 28.842C100.551 29.382 100.659 29.874 100.875 30.318C101.091 30.762 101.403 31.116 101.811 31.38C102.219 31.644 102.711 31.776 103.287 31.776ZM116.797 25.53C116.497 25.338 116.173 25.182 115.825 25.062C115.477 24.93 115.093 24.864 114.673 24.864C114.013 24.864 113.431 25.038 112.927 25.386C112.435 25.734 112.051 26.208 111.775 26.808C111.499 27.396 111.361 28.062 111.361 28.806C111.361 29.718 111.589 30.444 112.045 30.984C112.513 31.512 113.137 31.776 113.917 31.776C114.373 31.776 114.775 31.722 115.123 31.614C115.471 31.506 115.789 31.38 116.077 31.236L116.275 32.658C115.975 32.79 115.609 32.916 115.177 33.036C114.757 33.156 114.247 33.216 113.647 33.216C112.867 33.216 112.177 33.042 111.577 32.694C110.989 32.346 110.527 31.86 110.191 31.236C109.867 30.6 109.705 29.862 109.705 29.022C109.705 28.014 109.909 27.09 110.317 26.25C110.737 25.398 111.325 24.714 112.081 24.198C112.849 23.682 113.755 23.424 114.799 23.424C115.363 23.424 115.861 23.496 116.293 23.64C116.737 23.772 117.127 23.94 117.463 24.144L116.797 25.53ZM125.346 26.376C125.346 25.92 125.208 25.554 124.932 25.278C124.668 24.99 124.32 24.846 123.888 24.846C123.468 24.846 123.006 24.996 122.502 25.296C122.01 25.596 121.56 26.064 121.152 26.7C120.744 27.336 120.45 28.158 120.27 29.166L119.604 33H117.984L120.324 19.68H121.944L120.9 25.602C121.272 24.942 121.758 24.414 122.358 24.018C122.97 23.622 123.612 23.424 124.284 23.424C125.112 23.424 125.766 23.676 126.246 24.18C126.738 24.672 126.984 25.278 126.984 25.998C126.984 26.298 126.948 26.676 126.876 27.132L125.85 33H124.23L125.22 27.402C125.28 27.114 125.316 26.904 125.328 26.772C125.34 26.628 125.346 26.496 125.346 26.376ZM131.41 33.216C130.93 33.216 130.486 33.108 130.078 32.892C129.682 32.676 129.364 32.376 129.124 31.992C128.884 31.596 128.764 31.128 128.764 30.588C128.764 30.432 128.77 30.276 128.782 30.12C128.794 29.952 128.812 29.778 128.836 29.598L129.862 23.64H131.482L130.438 29.562C130.426 29.682 130.414 29.79 130.402 29.886C130.39 29.97 130.384 30.066 130.384 30.174C130.384 30.714 130.54 31.116 130.852 31.38C131.164 31.644 131.53 31.776 131.95 31.776C132.406 31.776 132.85 31.638 133.282 31.362C133.726 31.074 134.116 30.666 134.452 30.138C134.788 29.61 135.022 28.974 135.154 28.23L135.964 23.64H137.584L136.396 30.462C136.384 30.522 136.372 30.594 136.36 30.678C136.36 30.75 136.36 30.828 136.36 30.912C136.36 31.248 136.456 31.488 136.648 31.632C136.84 31.764 137.092 31.83 137.404 31.83L136.846 33.09C136.198 33.09 135.7 32.934 135.352 32.622C135.016 32.298 134.848 31.8 134.848 31.128V30.966C133.972 32.466 132.826 33.216 131.41 33.216ZM140.466 26.268C140.478 26.208 140.484 26.142 140.484 26.07C140.496 25.986 140.502 25.902 140.502 25.818C140.502 25.482 140.406 25.248 140.214 25.116C140.022 24.972 139.77 24.9 139.458 24.9L140.016 23.64C140.652 23.64 141.138 23.796 141.474 24.108C141.822 24.408 141.996 24.858 141.996 25.458V25.818C142.344 24.966 142.788 24.354 143.328 23.982C143.88 23.61 144.504 23.424 145.2 23.424C145.476 23.424 145.71 23.448 145.902 23.496C146.106 23.532 146.274 23.58 146.406 23.64L145.686 25.224C145.542 25.164 145.392 25.122 145.236 25.098C145.08 25.074 144.9 25.062 144.696 25.062C144.264 25.062 143.832 25.218 143.4 25.53C142.98 25.83 142.596 26.334 142.248 27.042C141.912 27.75 141.636 28.722 141.42 29.958L140.898 33H139.278L140.466 26.268ZM150.159 33.216C149.367 33.216 148.665 33.048 148.053 32.712C147.453 32.364 146.979 31.872 146.631 31.236C146.295 30.588 146.127 29.826 146.127 28.95C146.127 27.954 146.331 27.036 146.739 26.196C147.159 25.356 147.747 24.684 148.503 24.18C149.271 23.676 150.165 23.424 151.185 23.424C151.881 23.424 152.469 23.556 152.949 23.82C153.441 24.084 153.819 24.426 154.083 24.846C154.347 25.266 154.479 25.716 154.479 26.196C154.479 26.856 154.323 27.402 154.011 27.834C153.699 28.266 153.297 28.602 152.805 28.842C152.313 29.07 151.779 29.232 151.203 29.328C150.639 29.424 150.099 29.472 149.583 29.472C149.259 29.472 148.935 29.46 148.611 29.436C148.299 29.4 148.023 29.364 147.783 29.328C147.879 30.12 148.161 30.726 148.629 31.146C149.097 31.566 149.697 31.776 150.429 31.776C151.029 31.776 151.563 31.698 152.031 31.542C152.499 31.386 152.895 31.23 153.219 31.074L153.363 32.514C153.003 32.682 152.547 32.844 151.995 33C151.443 33.144 150.831 33.216 150.159 33.216ZM151.059 24.792C150.495 24.792 149.985 24.936 149.529 25.224C149.073 25.5 148.695 25.884 148.395 26.376C148.107 26.856 147.915 27.408 147.819 28.032C148.095 28.08 148.371 28.122 148.647 28.158C148.935 28.182 149.247 28.194 149.583 28.194C150.591 28.194 151.389 28.056 151.977 27.78C152.565 27.492 152.859 27.006 152.859 26.322C152.859 25.902 152.691 25.542 152.355 25.242C152.031 24.942 151.599 24.792 151.059 24.792Z" fill="#2F80ED"/>
<rect x="0.5" y="0.5" width="202" height="54" rx="7.5" stroke="#2F80ED"/>
<rect x="216" width="210" height="55" rx="8" fill="#2F80ED"/>
<path d="M269.47 20.4H271.18L269.236 31.47H275.014L274.744 33H267.256L269.47 20.4ZM280.11 33.216C279.318 33.216 278.616 33.048 278.004 32.712C277.404 32.364 276.93 31.872 276.582 31.236C276.246 30.588 276.078 29.826 276.078 28.95C276.078 27.954 276.282 27.036 276.69 26.196C277.11 25.356 277.698 24.684 278.454 24.18C279.222 23.676 280.116 23.424 281.136 23.424C281.832 23.424 282.42 23.556 282.9 23.82C283.392 24.084 283.77 24.426 284.034 24.846C284.298 25.266 284.43 25.716 284.43 26.196C284.43 26.856 284.274 27.402 283.962 27.834C283.65 28.266 283.248 28.602 282.756 28.842C282.264 29.07 281.73 29.232 281.154 29.328C280.59 29.424 280.05 29.472 279.534 29.472C279.21 29.472 278.886 29.46 278.562 29.436C278.25 29.4 277.974 29.364 277.734 29.328C277.83 30.12 278.112 30.726 278.58 31.146C279.048 31.566 279.648 31.776 280.38 31.776C280.98 31.776 281.514 31.698 281.982 31.542C282.45 31.386 282.846 31.23 283.17 31.074L283.314 32.514C282.954 32.682 282.498 32.844 281.946 33C281.394 33.144 280.782 33.216 280.11 33.216ZM281.01 24.792C280.446 24.792 279.936 24.936 279.48 25.224C279.024 25.5 278.646 25.884 278.346 26.376C278.058 26.856 277.866 27.408 277.77 28.032C278.046 28.08 278.322 28.122 278.598 28.158C278.886 28.182 279.198 28.194 279.534 28.194C280.542 28.194 281.34 28.056 281.928 27.78C282.516 27.492 282.81 27.006 282.81 26.322C282.81 25.902 282.642 25.542 282.306 25.242C281.982 24.942 281.55 24.792 281.01 24.792ZM285.395 29.31C285.395 28.146 285.647 27.126 286.151 26.25C286.667 25.362 287.375 24.672 288.275 24.18C289.175 23.676 290.201 23.424 291.353 23.424C292.061 23.424 292.679 23.496 293.207 23.64C293.747 23.784 294.191 23.928 294.539 24.072L293.405 30.462C293.393 30.522 293.381 30.594 293.369 30.678C293.369 30.75 293.369 30.828 293.369 30.912C293.369 31.248 293.465 31.488 293.657 31.632C293.849 31.764 294.101 31.83 294.413 31.83L293.855 33.09C293.207 33.09 292.709 32.934 292.361 32.622C292.025 32.298 291.857 31.8 291.857 31.128C291.521 31.704 291.095 32.196 290.579 32.604C290.075 33.012 289.481 33.216 288.797 33.216C288.209 33.216 287.657 33.06 287.141 32.748C286.625 32.424 286.205 31.974 285.881 31.398C285.557 30.81 285.395 30.114 285.395 29.31ZM292.757 25.026C292.529 24.954 292.289 24.9 292.037 24.864C291.797 24.816 291.503 24.792 291.155 24.792C290.327 24.792 289.607 24.978 288.995 25.35C288.383 25.722 287.903 26.238 287.555 26.898C287.219 27.546 287.051 28.284 287.051 29.112C287.051 29.688 287.153 30.174 287.357 30.57C287.573 30.966 287.849 31.266 288.185 31.47C288.521 31.674 288.869 31.776 289.229 31.776C289.721 31.776 290.171 31.608 290.579 31.272C290.987 30.936 291.335 30.468 291.623 29.868C291.923 29.268 292.139 28.584 292.271 27.816L292.757 25.026ZM297.505 26.268C297.517 26.208 297.523 26.142 297.523 26.07C297.535 25.986 297.541 25.902 297.541 25.818C297.541 25.482 297.445 25.248 297.253 25.116C297.061 24.972 296.809 24.9 296.497 24.9L297.055 23.64C297.691 23.64 298.177 23.796 298.513 24.108C298.861 24.408 299.035 24.858 299.035 25.458V25.818C299.383 24.966 299.827 24.354 300.367 23.982C300.919 23.61 301.543 23.424 302.239 23.424C302.515 23.424 302.749 23.448 302.941 23.496C303.145 23.532 303.313 23.58 303.445 23.64L302.725 25.224C302.581 25.164 302.431 25.122 302.275 25.098C302.119 25.074 301.939 25.062 301.735 25.062C301.303 25.062 300.871 25.218 300.439 25.53C300.019 25.83 299.635 26.334 299.287 27.042C298.951 27.75 298.675 28.722 298.459 29.958L297.937 33H296.317L297.505 26.268ZM309.228 24.846C308.808 24.846 308.352 25.002 307.86 25.314C307.368 25.626 306.912 26.112 306.492 26.772C306.084 27.42 305.79 28.254 305.61 29.274L304.962 33H303.342L304.98 23.64H306.546L306.15 25.8C306.522 25.08 307.02 24.504 307.644 24.072C308.28 23.64 308.946 23.424 309.642 23.424C310.458 23.424 311.112 23.676 311.604 24.18C312.096 24.672 312.342 25.278 312.342 25.998C312.342 26.298 312.306 26.676 312.234 27.132L311.208 33H309.588L310.578 27.402C310.638 27.114 310.674 26.904 310.686 26.772C310.698 26.628 310.704 26.496 310.704 26.376C310.704 25.908 310.566 25.536 310.29 25.26C310.026 24.984 309.672 24.846 309.228 24.846ZM331.344 22.47L326.682 30.156H325.008L322.902 22.398L321.048 33H319.428L321.642 20.4H323.964L326.088 28.428L330.84 20.4H333.414L331.2 33H329.49L331.344 22.47ZM338.635 33.216C337.747 33.216 336.979 33.036 336.331 32.676C335.683 32.316 335.179 31.818 334.819 31.182C334.471 30.534 334.297 29.802 334.297 28.986C334.297 27.942 334.507 27 334.927 26.16C335.359 25.32 335.959 24.654 336.727 24.162C337.495 23.67 338.401 23.424 339.445 23.424C340.333 23.424 341.101 23.604 341.749 23.964C342.397 24.324 342.895 24.822 343.243 25.458C343.603 26.094 343.783 26.826 343.783 27.654C343.783 28.686 343.573 29.628 343.153 30.48C342.733 31.32 342.133 31.986 341.353 32.478C340.585 32.97 339.679 33.216 338.635 33.216ZM338.689 31.776C339.409 31.776 340.021 31.602 340.525 31.254C341.041 30.894 341.437 30.414 341.713 29.814C341.989 29.214 342.127 28.542 342.127 27.798C342.127 27.246 342.019 26.754 341.803 26.322C341.587 25.878 341.275 25.524 340.867 25.26C340.459 24.996 339.967 24.864 339.391 24.864C338.683 24.864 338.071 25.044 337.555 25.404C337.039 25.752 336.643 26.226 336.367 26.826C336.091 27.426 335.953 28.098 335.953 28.842C335.953 29.382 336.061 29.874 336.277 30.318C336.493 30.762 336.805 31.116 337.213 31.38C337.621 31.644 338.113 31.776 338.689 31.776ZM346.565 26.268C346.577 26.208 346.583 26.142 346.583 26.07C346.595 25.986 346.601 25.902 346.601 25.818C346.601 25.482 346.505 25.248 346.313 25.116C346.121 24.972 345.869 24.9 345.557 24.9L346.115 23.64C346.751 23.64 347.237 23.796 347.573 24.108C347.921 24.408 348.095 24.858 348.095 25.458V25.818C348.443 24.966 348.887 24.354 349.427 23.982C349.979 23.61 350.603 23.424 351.299 23.424C351.575 23.424 351.809 23.448 352.001 23.496C352.205 23.532 352.373 23.58 352.505 23.64L351.785 25.224C351.641 25.164 351.491 25.122 351.335 25.098C351.179 25.074 350.999 25.062 350.795 25.062C350.363 25.062 349.931 25.218 349.499 25.53C349.079 25.83 348.695 26.334 348.347 27.042C348.011 27.75 347.735 28.722 347.519 29.958L346.997 33H345.377L346.565 26.268ZM356.259 33.216C355.467 33.216 354.765 33.048 354.153 32.712C353.553 32.364 353.079 31.872 352.731 31.236C352.395 30.588 352.227 29.826 352.227 28.95C352.227 27.954 352.431 27.036 352.839 26.196C353.259 25.356 353.847 24.684 354.603 24.18C355.371 23.676 356.265 23.424 357.285 23.424C357.981 23.424 358.569 23.556 359.049 23.82C359.541 24.084 359.919 24.426 360.183 24.846C360.447 25.266 360.579 25.716 360.579 26.196C360.579 26.856 360.423 27.402 360.111 27.834C359.799 28.266 359.397 28.602 358.905 28.842C358.413 29.07 357.879 29.232 357.303 29.328C356.739 29.424 356.199 29.472 355.683 29.472C355.359 29.472 355.035 29.46 354.711 29.436C354.399 29.4 354.123 29.364 353.883 29.328C353.979 30.12 354.261 30.726 354.729 31.146C355.197 31.566 355.797 31.776 356.529 31.776C357.129 31.776 357.663 31.698 358.131 31.542C358.599 31.386 358.995 31.23 359.319 31.074L359.463 32.514C359.103 32.682 358.647 32.844 358.095 33C357.543 33.144 356.931 33.216 356.259 33.216ZM357.159 24.792C356.595 24.792 356.085 24.936 355.629 25.224C355.173 25.5 354.795 25.884 354.495 26.376C354.207 26.856 354.015 27.408 353.919 28.032C354.195 28.08 354.471 28.122 354.747 28.158C355.035 28.182 355.347 28.194 355.683 28.194C356.691 28.194 357.489 28.056 358.077 27.78C358.665 27.492 358.959 27.006 358.959 26.322C358.959 25.902 358.791 25.542 358.455 25.242C358.131 24.942 357.699 24.792 357.159 24.792Z" fill="white"/>
<g clip-path="url(#clip1_919_247)">
<path d="M375.574 27.4999L371.037 22.9624L372.333 21.6663L378.167 27.4999L372.333 33.3336L371.037 32.0374L375.574 27.4999Z" fill="white"/>
</g>
<defs>
<clipPath id="clip0_919_247">
<rect width="22" height="22" fill="white" transform="translate(48 16.5)"/>
</clipPath>
<clipPath id="clip1_919_247">
<rect width="22" height="22" fill="white" transform="translate(363.5 16.5)"/>
</clipPath>
</defs>
</svg>
