<svg width="367" height="52" viewBox="0 0 367 52" fill="none" xmlns="http://www.w3.org/2000/svg">
<rect x="0.5" width="366" height="52" rx="8" fill="#FAFAFA"/>
<g clip-path="url(#clip0_2074_162)">
<path d="M18.305 24.9017C19.0869 26.2754 20.2246 27.4131 21.5983 28.195L22.335 27.1633C22.4535 26.9974 22.6286 26.8807 22.8273 26.8353C23.026 26.7898 23.2345 26.8188 23.4133 26.9167C24.5919 27.5608 25.8935 27.9481 27.2325 28.0533C27.4415 28.0699 27.6365 28.1646 27.7788 28.3186C27.921 28.4726 28 28.6745 28 28.8842V32.6025C28 32.8088 27.9235 33.0078 27.7853 33.161C27.6471 33.3142 27.4569 33.4106 27.2517 33.4317C26.81 33.4775 26.365 33.5 25.9167 33.5C18.7833 33.5 13 27.7167 13 20.5833C13 20.135 13.0225 19.69 13.0683 19.2483C13.0894 19.0431 13.1858 18.8529 13.339 18.7147C13.4922 18.5765 13.6912 18.5 13.8975 18.5H17.6158C17.8255 18.5 18.0274 18.579 18.1814 18.7212C18.3354 18.8635 18.4301 19.0585 18.4467 19.2675C18.5519 20.6065 18.9392 21.9081 19.5833 23.0867C19.6812 23.2655 19.7102 23.474 19.6647 23.6727C19.6193 23.8714 19.5026 24.0465 19.3367 24.165L18.305 24.9017ZM16.2033 24.3542L17.7867 23.2233C17.3373 22.2534 17.0295 21.224 16.8725 20.1667H14.675C14.67 20.305 14.6675 20.4442 14.6675 20.5833C14.6667 26.7967 19.7033 31.8333 25.9167 31.8333C26.0558 31.8333 26.195 31.8308 26.3333 31.825V29.6275C25.276 29.4705 24.2466 29.1627 23.2767 28.7133L22.1458 30.2967C21.6906 30.1198 21.2483 29.9109 20.8225 29.6717L20.7742 29.6442C19.1396 28.7139 17.7861 27.3604 16.8558 25.7258L16.8283 25.6775C16.5891 25.2517 16.3802 24.8094 16.2033 24.3542Z" fill="#8393A9"/>
</g>
<path d="M42.196 23.36C42.196 22.816 42.1213 22.416 41.972 22.16C41.8227 21.8933 41.524 21.76 41.076 21.76H40.756V21.44H44.916C45.94 21.44 46.8627 21.6587 47.684 22.096C48.5053 22.5333 48.916 23.3813 48.916 24.64C48.916 25.472 48.7027 26.112 48.276 26.56C47.8493 27.008 47.3693 27.3067 46.836 27.456C46.3133 27.6053 45.8333 27.68 45.396 27.68H43.636V32H42.196V23.36ZM44.836 27.12C45.1773 27.12 45.54 27.0347 45.924 26.864C46.308 26.6827 46.6333 26.4 46.9 26.016C47.1773 25.632 47.316 25.1467 47.316 24.56C47.316 23.9733 47.1773 23.488 46.9 23.104C46.6333 22.72 46.308 22.4427 45.924 22.272C45.54 22.0907 45.1773 22 44.836 22C44.4627 22 44.0627 22.0533 43.636 22.16V26.96C44.0627 27.0667 44.4627 27.12 44.836 27.12ZM50.4801 23.36C50.4801 22.816 50.4055 22.416 50.2561 22.16C50.1068 21.8933 49.8081 21.76 49.3601 21.76H49.0401V21.44H50.4801C50.8748 21.44 51.1681 21.4933 51.3601 21.6C51.5628 21.696 51.7068 21.8773 51.7921 22.144C51.8775 22.4107 51.9201 22.816 51.9201 23.36V25.12C52.1441 24.896 52.4321 24.7093 52.7841 24.56C53.1468 24.4 53.5521 24.32 54.0001 24.32C54.8001 24.32 55.4508 24.5333 55.9521 24.96C56.4641 25.3867 56.7201 26.1333 56.7201 27.2V32H55.2801V27.2C55.2801 26.4533 55.1095 25.9093 54.7681 25.568C54.4375 25.216 54.0215 25.04 53.5201 25.04C52.9548 25.04 52.4215 25.3227 51.9201 25.888V32H50.4801V23.36ZM62.0369 32.16C61.3115 32.16 60.6822 31.9893 60.1489 31.648C59.6155 31.296 59.2102 30.8213 58.9329 30.224C58.6555 29.6267 58.5169 28.9653 58.5169 28.24C58.5169 27.5147 58.6555 26.8533 58.9329 26.256C59.2102 25.6587 59.6155 25.1893 60.1489 24.848C60.6822 24.496 61.3115 24.32 62.0369 24.32C62.7622 24.32 63.3915 24.496 63.9249 24.848C64.4582 25.1893 64.8635 25.6587 65.1409 26.256C65.4182 26.8533 65.5569 27.5147 65.5569 28.24C65.5569 28.9653 65.4182 29.6267 65.1409 30.224C64.8635 30.8213 64.4582 31.296 63.9249 31.648C63.3915 31.9893 62.7622 32.16 62.0369 32.16ZM62.0369 31.52C62.4315 31.52 62.7782 31.376 63.0769 31.088C63.3862 30.8 63.6209 30.4053 63.7809 29.904C63.9515 29.4027 64.0369 28.848 64.0369 28.24C64.0369 27.632 63.9515 27.0773 63.7809 26.576C63.6209 26.0747 63.3862 25.68 63.0769 25.392C62.7782 25.104 62.4315 24.96 62.0369 24.96C61.6422 24.96 61.2902 25.104 60.9809 25.392C60.6822 25.68 60.4475 26.0747 60.2769 26.576C60.1169 27.0773 60.0369 27.632 60.0369 28.24C60.0369 28.848 60.1169 29.4027 60.2769 29.904C60.4475 30.4053 60.6822 30.8 60.9809 31.088C61.2902 31.376 61.6422 31.52 62.0369 31.52ZM67.6733 26.4C67.6733 25.856 67.5986 25.456 67.4493 25.2C67.2999 24.9333 67.0013 24.8 66.5533 24.8H66.2332V24.48H67.6733C68.0679 24.48 68.3666 24.5333 68.5693 24.64C68.7826 24.7467 68.9373 24.9067 69.0333 25.12H69.1133C69.3373 24.896 69.6253 24.7093 69.9773 24.56C70.3399 24.4 70.7453 24.32 71.1933 24.32C71.9933 24.32 72.6439 24.5333 73.1453 24.96C73.6573 25.3867 73.9133 26.1333 73.9133 27.2V32H72.4733V27.2C72.4733 26.4533 72.3026 25.9093 71.9613 25.568C71.6306 25.216 71.2146 25.04 70.7133 25.04C70.1479 25.04 69.6146 25.3227 69.1133 25.888V32H67.6733V26.4ZM79.0644 32.16C78.339 32.16 77.7257 31.9893 77.2244 31.648C76.723 31.296 76.3444 30.8267 76.0884 30.24C75.8324 29.6427 75.7044 28.976 75.7044 28.24C75.7044 27.5147 75.8324 26.8533 76.0884 26.256C76.3444 25.6587 76.7124 25.1893 77.1924 24.848C77.683 24.496 78.2537 24.32 78.9044 24.32C79.9817 24.32 80.7817 24.624 81.3044 25.232C81.8377 25.8293 82.1044 26.6987 82.1044 27.84L82.0724 28.48H77.2244C77.2244 29.376 77.4164 30.1067 77.8004 30.672C78.1844 31.2373 78.7124 31.52 79.3844 31.52C79.8857 31.52 80.307 31.4133 80.6484 31.2C81.0004 30.9867 81.3257 30.6667 81.6244 30.24L81.9444 30.48C81.5924 31.0667 81.1817 31.4933 80.7124 31.76C80.243 32.0267 79.6937 32.16 79.0644 32.16ZM80.5844 27.84C80.5844 26.9013 80.4457 26.1867 80.1684 25.696C79.891 25.2053 79.4697 24.96 78.9044 24.96C78.5844 24.96 78.2964 25.088 78.0404 25.344C77.7844 25.5893 77.5817 25.9307 77.4324 26.368C77.2937 26.8053 77.2244 27.296 77.2244 27.84H80.5844ZM88.1889 26.4C88.1889 25.856 88.1142 25.456 87.9649 25.2C87.8155 24.9333 87.5169 24.8 87.0689 24.8H86.7489V24.48H88.1889C88.5835 24.48 88.8822 24.5333 89.0849 24.64C89.2982 24.7467 89.4529 24.9067 89.5489 25.12H89.6289C89.8529 24.896 90.1409 24.7093 90.4929 24.56C90.8555 24.4 91.2609 24.32 91.7089 24.32C92.5089 24.32 93.1595 24.5333 93.6609 24.96C94.1729 25.3867 94.4289 26.1333 94.4289 27.2V32H92.9889V27.2C92.9889 26.4533 92.8182 25.9093 92.4769 25.568C92.1462 25.216 91.7302 25.04 91.2289 25.04C90.6635 25.04 90.1302 25.3227 89.6289 25.888V32H88.1889V26.4ZM99.388 32.16C98.588 32.16 97.932 31.9467 97.42 31.52C96.9187 31.0933 96.668 30.3467 96.668 29.28V26.4C96.668 25.856 96.5933 25.456 96.444 25.2C96.2947 24.9333 95.996 24.8 95.548 24.8H95.388V24.48H96.668C97.0627 24.48 97.356 24.5333 97.548 24.64C97.7507 24.736 97.8947 24.9173 97.98 25.184C98.0653 25.4507 98.108 25.856 98.108 26.4V29.28C98.108 30.0267 98.2733 30.576 98.604 30.928C98.9453 31.2693 99.3667 31.44 99.868 31.44C100.433 31.44 100.967 31.1573 101.468 30.592V24.48H102.908V32H102.108L101.548 31.36H101.468C101.244 31.584 100.951 31.776 100.588 31.936C100.236 32.0853 99.836 32.16 99.388 32.16ZM105.455 26.4C105.455 25.856 105.38 25.456 105.231 25.2C105.081 24.9333 104.783 24.8 104.335 24.8H104.014V24.48H105.455C105.849 24.48 106.148 24.5333 106.351 24.64C106.564 24.7467 106.719 24.9067 106.815 25.12H106.895C107.119 24.896 107.407 24.7093 107.759 24.56C108.121 24.4 108.527 24.32 108.975 24.32C109.423 24.32 109.807 24.4053 110.127 24.576C110.447 24.736 110.703 25.024 110.895 25.44C111.172 25.088 111.524 24.816 111.951 24.624C112.388 24.4213 112.836 24.32 113.295 24.32C113.977 24.32 114.521 24.5333 114.927 24.96C115.332 25.3867 115.535 26.1333 115.535 27.2V32H114.095V27.2C114.095 26.432 113.988 25.8827 113.775 25.552C113.561 25.2107 113.241 25.04 112.815 25.04C112.516 25.04 112.201 25.152 111.871 25.376C111.54 25.5893 111.295 25.824 111.135 26.08C111.188 26.24 111.215 26.6133 111.215 27.2V32H109.775V27.2C109.775 26.432 109.668 25.8827 109.455 25.552C109.241 25.2107 108.921 25.04 108.495 25.04C107.929 25.04 107.396 25.3227 106.895 25.888V32H105.455V26.4ZM121.377 32.16C120.833 32.16 120.385 32.0747 120.033 31.904C119.681 31.7333 119.409 31.5253 119.217 31.28H119.137L118.577 32H117.777V23.36C117.777 22.816 117.702 22.416 117.553 22.16C117.404 21.8933 117.105 21.76 116.657 21.76H116.337V21.44H117.777C118.172 21.44 118.465 21.4933 118.657 21.6C118.86 21.696 119.004 21.8773 119.089 22.144C119.174 22.4107 119.217 22.816 119.217 23.36V24.8C119.526 24.6507 119.836 24.5333 120.145 24.448C120.454 24.3627 120.812 24.32 121.217 24.32C122.209 24.32 122.961 24.688 123.473 25.424C123.996 26.16 124.257 27.0987 124.257 28.24C124.257 29.3707 124.006 30.3093 123.505 31.056C123.004 31.792 122.294 32.16 121.377 32.16ZM120.897 31.52C121.505 31.52 121.964 31.2213 122.273 30.624C122.582 30.016 122.737 29.2213 122.737 28.24C122.737 27.248 122.572 26.4533 122.241 25.856C121.921 25.2587 121.42 24.96 120.737 24.96C120.513 24.96 120.284 25.0027 120.049 25.088C119.814 25.1733 119.537 25.2907 119.217 25.44V30.56C119.409 30.848 119.633 31.0827 119.889 31.264C120.156 31.4347 120.492 31.52 120.897 31.52ZM129.08 32.16C128.355 32.16 127.741 31.9893 127.24 31.648C126.739 31.296 126.36 30.8267 126.104 30.24C125.848 29.6427 125.72 28.976 125.72 28.24C125.72 27.5147 125.848 26.8533 126.104 26.256C126.36 25.6587 126.728 25.1893 127.208 24.848C127.699 24.496 128.269 24.32 128.92 24.32C129.997 24.32 130.797 24.624 131.32 25.232C131.853 25.8293 132.12 26.6987 132.12 27.84L132.088 28.48H127.24C127.24 29.376 127.432 30.1067 127.816 30.672C128.2 31.2373 128.728 31.52 129.4 31.52C129.901 31.52 130.323 31.4133 130.664 31.2C131.016 30.9867 131.341 30.6667 131.64 30.24L131.96 30.48C131.608 31.0667 131.197 31.4933 130.728 31.76C130.259 32.0267 129.709 32.16 129.08 32.16ZM130.6 27.84C130.6 26.9013 130.461 26.1867 130.184 25.696C129.907 25.2053 129.485 24.96 128.92 24.96C128.6 24.96 128.312 25.088 128.056 25.344C127.8 25.5893 127.597 25.9307 127.448 26.368C127.309 26.8053 127.24 27.296 127.24 27.84H130.6ZM134.093 26.4C134.093 25.856 134.018 25.456 133.868 25.2C133.719 24.9333 133.421 24.8 132.973 24.8H132.812V24.48H134.093C134.498 24.48 134.802 24.5387 135.005 24.656C135.218 24.7627 135.367 24.944 135.453 25.2H135.533C135.725 24.9547 135.981 24.7467 136.301 24.576C136.631 24.4053 137.015 24.32 137.453 24.32C137.879 24.32 138.199 24.4 138.413 24.56C138.594 24.6987 138.781 24.9387 138.973 25.28L138.333 25.76C138.215 25.6 138.045 25.4827 137.821 25.408C137.597 25.3227 137.341 25.28 137.053 25.28C136.733 25.28 136.439 25.3547 136.173 25.504C135.906 25.6427 135.693 25.8347 135.533 26.08V32H134.093V26.4Z" fill="#8393A9"/>
<defs>
<clipPath id="clip0_2074_162">
<rect width="20" height="20" fill="white" transform="translate(10.5 16)"/>
</clipPath>
</defs>
</svg>
