<svg width="640" height="48" viewBox="0 0 640 48" fill="none" xmlns="http://www.w3.org/2000/svg">
<path d="M6.25 2H26.75L26.05 6.1H10.25L8.4 16.8H21.5L20.8 20.7H7.7L4.85 37H0.1L6.25 2ZM31.0223 37.6C29.6889 37.6 28.4556 37.3 27.3223 36.7C26.2223 36.1 25.3389 35.2667 24.6723 34.2C24.0056 33.1 23.6723 31.8 23.6723 30.3C23.6723 29.8667 23.6889 29.4333 23.7223 29C23.7556 28.5333 23.8056 28.05 23.8723 27.55L26.7223 11H31.2223L28.3223 27.45C28.2889 27.7833 28.2556 28.0833 28.2223 28.35C28.1889 28.5833 28.1723 28.85 28.1723 29.15C28.1723 30.65 28.6056 31.7667 29.4723 32.5C30.3389 33.2333 31.3556 33.6 32.5223 33.6C33.7889 33.6 35.0223 33.2167 36.2223 32.45C37.4556 31.65 38.5389 30.5167 39.4723 29.05C40.4056 27.5833 41.0556 25.8167 41.4223 23.75L43.6723 11H48.1723L44.8723 29.95C44.8389 30.1167 44.8056 30.3167 44.7723 30.55C44.7723 30.75 44.7723 30.9667 44.7723 31.2C44.7723 32.1333 45.0389 32.8 45.5723 33.2C46.1056 33.5667 46.8056 33.75 47.6723 33.75L46.1223 37.25C44.3223 37.25 42.9389 36.8167 41.9723 35.95C41.0389 35.05 40.5723 33.6667 40.5723 31.8V31.35C38.1389 35.5167 34.9556 37.6 31.0223 37.6ZM56.8273 28C56.7607 28.4333 56.7107 28.8333 56.6773 29.2C56.644 29.5333 56.6273 29.8333 56.6273 30.1C56.6273 31.2333 56.9607 32.1167 57.6273 32.75C58.3273 33.3833 59.244 33.7 60.3773 33.7C60.944 33.7 61.5107 33.6333 62.0773 33.5C62.644 33.3667 63.1607 33.1833 63.6273 32.95L64.0773 36.6C63.4773 36.9 62.7773 37.1333 61.9773 37.3C61.1773 37.5 60.3107 37.6 59.3773 37.6C57.3773 37.6 55.6607 37.0333 54.2273 35.9C52.8273 34.7333 52.1273 32.9833 52.1273 30.65C52.1273 29.7833 52.194 28.9333 52.3273 28.1L57.2273 -4.76837e-07H61.7273L56.8273 28ZM71.7512 28C71.6845 28.4333 71.6345 28.8333 71.6012 29.2C71.5678 29.5333 71.5512 29.8333 71.5512 30.1C71.5512 31.2333 71.8845 32.1167 72.5512 32.75C73.2512 33.3833 74.1678 33.7 75.3012 33.7C75.8678 33.7 76.4345 33.6333 77.0012 33.5C77.5678 33.3667 78.0845 33.1833 78.5512 32.95L79.0012 36.6C78.4012 36.9 77.7012 37.1333 76.9012 37.3C76.1012 37.5 75.2345 37.6 74.3012 37.6C72.3012 37.6 70.5845 37.0333 69.1512 35.9C67.7512 34.7333 67.0512 32.9833 67.0512 30.65C67.0512 29.7833 67.1178 28.9333 67.2512 28.1L72.1512 -4.76837e-07H76.6512L71.7512 28ZM113.648 28.15C113.648 27.2167 113.448 26.3667 113.048 25.6C112.681 24.8333 111.998 24.05 110.998 23.25C109.998 22.4167 108.564 21.4833 106.698 20.45C104.098 18.9833 102.248 17.5333 101.148 16.1C100.081 14.6667 99.5477 12.8333 99.5477 10.6C99.5477 8.73333 100.031 7.11666 100.998 5.75C101.998 4.38333 103.381 3.31667 105.148 2.55C106.914 1.78333 108.948 1.4 111.248 1.4C113.348 1.4 115.248 1.66667 116.948 2.2C118.648 2.7 120.231 3.38333 121.698 4.25L119.248 8.15C118.048 7.38333 116.781 6.75 115.448 6.25C114.148 5.75 112.614 5.5 110.848 5.5C108.881 5.5 107.298 5.93333 106.098 6.8C104.898 7.63333 104.298 8.73333 104.298 10.1C104.298 11.3333 104.714 12.4333 105.548 13.4C106.414 14.3333 107.998 15.4167 110.298 16.65C112.498 17.8167 114.181 18.9667 115.348 20.1C116.548 21.2 117.364 22.3667 117.798 23.6C118.264 24.8333 118.498 26.2 118.498 27.7C118.498 29.7333 117.964 31.5 116.898 33C115.864 34.4667 114.414 35.6 112.548 36.4C110.681 37.2 108.514 37.6 106.048 37.6C103.648 37.6 101.481 37.2833 99.5477 36.65C97.6143 35.9833 95.9143 35.0667 94.4477 33.9L97.5477 30.05C98.681 31.0833 99.9977 31.9167 101.498 32.55C103.031 33.15 104.714 33.45 106.548 33.45C108.714 33.45 110.431 32.9833 111.698 32.05C112.998 31.0833 113.648 29.7833 113.648 28.15ZM122.568 11.95H127.168L129.568 3.75H133.018L131.568 11.95H138.768L138.118 15.85H130.868L128.768 28C128.702 28.3667 128.652 28.7167 128.618 29.05C128.585 29.35 128.568 29.6333 128.568 29.9C128.568 31.0667 128.918 31.9833 129.618 32.65C130.318 33.2833 131.235 33.6 132.368 33.6C133.335 33.6 134.152 33.4667 134.818 33.2C135.485 32.9 136.085 32.6 136.618 32.3L137.168 36.2C136.535 36.5667 135.735 36.8833 134.768 37.15C133.835 37.45 132.785 37.6 131.618 37.6C130.385 37.6 129.185 37.35 128.018 36.85C126.885 36.35 125.952 35.5667 125.218 34.5C124.485 33.4 124.118 31.9833 124.118 30.25C124.118 29.5167 124.185 28.7 124.318 27.8L126.368 15.85H121.918L122.568 11.95ZM139.961 26.75C139.961 23.5167 140.661 20.6833 142.061 18.25C143.495 15.7833 145.461 13.8667 147.961 12.5C150.461 11.1 153.311 10.4 156.511 10.4C158.478 10.4 160.195 10.6 161.661 11C163.161 11.4 164.395 11.8 165.361 12.2L162.211 29.95C162.178 30.1167 162.145 30.3167 162.111 30.55C162.111 30.75 162.111 30.9667 162.111 31.2C162.111 32.1333 162.378 32.8 162.911 33.2C163.445 33.5667 164.145 33.75 165.011 33.75L163.461 37.25C161.661 37.25 160.278 36.8167 159.311 35.95C158.378 35.05 157.911 33.6667 157.911 31.8C156.978 33.4 155.795 34.7667 154.361 35.9C152.961 37.0333 151.311 37.6 149.411 37.6C147.778 37.6 146.245 37.1667 144.811 36.3C143.378 35.4 142.211 34.15 141.311 32.55C140.411 30.9167 139.961 28.9833 139.961 26.75ZM160.411 14.85C159.778 14.65 159.111 14.5 158.411 14.4C157.745 14.2667 156.928 14.2 155.961 14.2C153.661 14.2 151.661 14.7167 149.961 15.75C148.261 16.7833 146.928 18.2167 145.961 20.05C145.028 21.85 144.561 23.9 144.561 26.2C144.561 27.8 144.845 29.15 145.411 30.25C146.011 31.35 146.778 32.1833 147.711 32.75C148.645 33.3167 149.611 33.6 150.611 33.6C151.978 33.6 153.228 33.1333 154.361 32.2C155.495 31.2667 156.461 29.9667 157.261 28.3C158.095 26.6333 158.695 24.7333 159.061 22.6L160.411 14.85ZM188.257 16.25C187.424 15.7167 186.524 15.2833 185.557 14.95C184.59 14.5833 183.524 14.4 182.357 14.4C180.524 14.4 178.907 14.8833 177.507 15.85C176.14 16.8167 175.074 18.1333 174.307 19.8C173.54 21.4333 173.157 23.2833 173.157 25.35C173.157 27.8833 173.79 29.9 175.057 31.4C176.357 32.8667 178.09 33.6 180.257 33.6C181.524 33.6 182.64 33.45 183.607 33.15C184.574 32.85 185.457 32.5 186.257 32.1L186.807 36.05C185.974 36.4167 184.957 36.7667 183.757 37.1C182.59 37.4333 181.174 37.6 179.507 37.6C177.34 37.6 175.424 37.1167 173.757 36.15C172.124 35.1833 170.84 33.8333 169.907 32.1C169.007 30.3333 168.557 28.2833 168.557 25.95C168.557 23.15 169.124 20.5833 170.257 18.25C171.424 15.8833 173.057 13.9833 175.157 12.55C177.29 11.1167 179.807 10.4 182.707 10.4C184.274 10.4 185.657 10.6 186.857 11C188.09 11.3667 189.174 11.8333 190.107 12.4L188.257 16.25ZM197.305 -4.76837e-07H201.805L199.105 15.35C200.005 13.8167 201.188 12.6167 202.655 11.75C204.122 10.85 205.772 10.4 207.605 10.4C209.038 10.4 210.305 10.7 211.405 11.3C212.538 11.9 213.422 12.7167 214.055 13.75C214.688 14.75 215.005 15.8667 215.005 17.1C215.005 19.7333 214.105 21.6833 212.305 22.95C210.538 24.1833 208.288 24.8 205.555 24.8C205.388 24.8 205.222 24.8 205.055 24.8C204.888 24.8 204.688 24.7833 204.455 24.75L208.705 31.25C209.272 32.1167 209.905 32.75 210.605 33.15C211.338 33.55 212.322 33.75 213.555 33.75L212.005 37.25C210.472 37.25 209.172 37.0333 208.105 36.6C207.038 36.1333 206.088 35.1833 205.255 33.75L199.105 23.15L199.555 21.7C200.055 21.9333 200.688 22.1333 201.455 22.3C202.222 22.4333 203.088 22.5 204.055 22.5C206.222 22.5 207.855 22.05 208.955 21.15C210.088 20.2167 210.655 19.0333 210.655 17.6C210.655 16.5667 210.272 15.7 209.505 15C208.772 14.2667 207.772 13.9 206.505 13.9C205.572 13.9 204.488 14.2 203.255 14.8C202.055 15.3667 200.922 16.3833 199.855 17.85C198.788 19.3167 198.022 21.3833 197.555 24.05L195.305 37H190.805L197.305 -4.76837e-07ZM237.544 2.4C238.91 2.1 240.277 1.86667 241.644 1.7C243.01 1.5 244.694 1.4 246.694 1.4C249.36 1.4 251.627 1.81667 253.494 2.65C255.394 3.48333 256.944 4.63333 258.144 6.1C259.344 7.53333 260.227 9.18333 260.794 11.05C261.36 12.8833 261.644 14.8167 261.644 16.85C261.644 20.85 260.844 24.4167 259.244 27.55C257.644 30.6833 255.377 33.15 252.444 34.95C249.51 36.7167 246.01 37.6 241.944 37.6C239.81 37.6 237.91 37.45 236.244 37.15C234.577 36.8833 233.06 36.5 231.694 36L237.544 2.4ZM246.294 5.4C245.427 5.4 244.61 5.45 243.844 5.55C243.077 5.61667 242.36 5.73333 241.694 5.9L236.994 32.85C237.76 33.05 238.577 33.2167 239.444 33.35C240.31 33.45 241.244 33.5 242.244 33.5C245.144 33.5 247.677 32.8167 249.844 31.45C252.044 30.0833 253.744 28.1833 254.944 25.75C256.144 23.2833 256.744 20.45 256.744 17.25C256.744 15.15 256.377 13.2 255.644 11.4C254.91 9.6 253.777 8.15 252.244 7.05C250.71 5.95 248.727 5.4 246.294 5.4ZM275.048 37.6C272.848 37.6 270.898 37.1333 269.198 36.2C267.531 35.2333 266.215 33.8667 265.248 32.1C264.315 30.3 263.848 28.1833 263.848 25.75C263.848 22.9833 264.415 20.4333 265.548 18.1C266.715 15.7667 268.348 13.9 270.448 12.5C272.581 11.1 275.065 10.4 277.898 10.4C279.831 10.4 281.465 10.7667 282.798 11.5C284.165 12.2333 285.215 13.1833 285.948 14.35C286.681 15.5167 287.048 16.7667 287.048 18.1C287.048 19.9333 286.615 21.45 285.748 22.65C284.881 23.85 283.765 24.7833 282.398 25.45C281.031 26.0833 279.548 26.5333 277.948 26.8C276.381 27.0667 274.881 27.2 273.448 27.2C272.548 27.2 271.648 27.1667 270.748 27.1C269.881 27 269.115 26.9 268.448 26.8C268.715 29 269.498 30.6833 270.798 31.85C272.098 33.0167 273.765 33.6 275.798 33.6C277.465 33.6 278.948 33.3833 280.248 32.95C281.548 32.5167 282.648 32.0833 283.548 31.65L283.948 35.65C282.948 36.1167 281.681 36.5667 280.148 37C278.615 37.4 276.915 37.6 275.048 37.6ZM277.548 14.2C275.981 14.2 274.565 14.6 273.298 15.4C272.031 16.1667 270.981 17.2333 270.148 18.6C269.348 19.9333 268.815 21.4667 268.548 23.2C269.315 23.3333 270.081 23.45 270.848 23.55C271.648 23.6167 272.515 23.65 273.448 23.65C276.248 23.65 278.465 23.2667 280.098 22.5C281.731 21.7 282.548 20.35 282.548 18.45C282.548 17.2833 282.081 16.2833 281.148 15.45C280.248 14.6167 279.048 14.2 277.548 14.2ZM288.977 11.6L293.227 10.5L298.377 32L310.827 10.5L314.477 12.65L299.877 37H295.227L288.977 11.6ZM324.866 37.6C322.666 37.6 320.716 37.1333 319.016 36.2C317.35 35.2333 316.033 33.8667 315.066 32.1C314.133 30.3 313.666 28.1833 313.666 25.75C313.666 22.9833 314.233 20.4333 315.366 18.1C316.533 15.7667 318.166 13.9 320.266 12.5C322.4 11.1 324.883 10.4 327.716 10.4C329.65 10.4 331.283 10.7667 332.616 11.5C333.983 12.2333 335.033 13.1833 335.766 14.35C336.5 15.5167 336.866 16.7667 336.866 18.1C336.866 19.9333 336.433 21.45 335.566 22.65C334.7 23.85 333.583 24.7833 332.216 25.45C330.85 26.0833 329.366 26.5333 327.766 26.8C326.2 27.0667 324.7 27.2 323.266 27.2C322.366 27.2 321.466 27.1667 320.566 27.1C319.7 27 318.933 26.9 318.266 26.8C318.533 29 319.316 30.6833 320.616 31.85C321.916 33.0167 323.583 33.6 325.616 33.6C327.283 33.6 328.766 33.3833 330.066 32.95C331.366 32.5167 332.466 32.0833 333.366 31.65L333.766 35.65C332.766 36.1167 331.5 36.5667 329.966 37C328.433 37.4 326.733 37.6 324.866 37.6ZM327.366 14.2C325.8 14.2 324.383 14.6 323.116 15.4C321.85 16.1667 320.8 17.2333 319.966 18.6C319.166 19.9333 318.633 21.4667 318.366 23.2C319.133 23.3333 319.9 23.45 320.666 23.55C321.466 23.6167 322.333 23.65 323.266 23.65C326.066 23.65 328.283 23.2667 329.916 22.5C331.55 21.7 332.366 20.35 332.366 18.45C332.366 17.2833 331.9 16.2833 330.966 15.45C330.066 14.6167 328.866 14.2 327.366 14.2ZM344.245 28C344.179 28.4333 344.129 28.8333 344.095 29.2C344.062 29.5333 344.045 29.8333 344.045 30.1C344.045 31.2333 344.379 32.1167 345.045 32.75C345.745 33.3833 346.662 33.7 347.795 33.7C348.362 33.7 348.929 33.6333 349.495 33.5C350.062 33.3667 350.579 33.1833 351.045 32.95L351.495 36.6C350.895 36.9 350.195 37.1333 349.395 37.3C348.595 37.5 347.729 37.6 346.795 37.6C344.795 37.6 343.079 37.0333 341.645 35.9C340.245 34.7333 339.545 32.9833 339.545 30.65C339.545 29.7833 339.612 28.9333 339.745 28.1L344.645 -4.76837e-07H349.145L344.245 28ZM364.988 37.6C362.521 37.6 360.388 37.1 358.588 36.1C356.788 35.1 355.388 33.7167 354.388 31.95C353.421 30.15 352.938 28.1167 352.938 25.85C352.938 22.95 353.521 20.3333 354.688 18C355.888 15.6667 357.555 13.8167 359.688 12.45C361.821 11.0833 364.338 10.4 367.238 10.4C369.705 10.4 371.838 10.9 373.638 11.9C375.438 12.9 376.821 14.2833 377.788 16.05C378.788 17.8167 379.288 19.85 379.288 22.15C379.288 25.0167 378.705 27.6333 377.538 30C376.371 32.3333 374.705 34.1833 372.538 35.55C370.405 36.9167 367.888 37.6 364.988 37.6ZM365.138 33.6C367.138 33.6 368.838 33.1167 370.238 32.15C371.671 31.15 372.771 29.8167 373.538 28.15C374.305 26.4833 374.688 24.6167 374.688 22.55C374.688 21.0167 374.388 19.65 373.788 18.45C373.188 17.2167 372.321 16.2333 371.188 15.5C370.055 14.7667 368.688 14.4 367.088 14.4C365.121 14.4 363.421 14.9 361.988 15.9C360.555 16.8667 359.455 18.1833 358.688 19.85C357.921 21.5167 357.538 23.3833 357.538 25.45C357.538 26.95 357.838 28.3167 358.438 29.55C359.038 30.7833 359.905 31.7667 361.038 32.5C362.171 33.2333 363.538 33.6 365.138 33.6ZM384.973 11C388.44 11 390.173 12.5 390.173 15.5V16.55C391.14 14.75 392.39 13.2833 393.923 12.15C395.456 10.9833 397.24 10.4 399.273 10.4C401.073 10.4 402.64 10.8667 403.973 11.8C405.306 12.7 406.323 13.9667 407.023 15.6C407.756 17.2 408.123 19.0667 408.123 21.2C408.123 23.6667 407.756 25.9167 407.023 27.95C406.323 29.95 405.356 31.6833 404.123 33.15C402.89 34.5833 401.506 35.6833 399.973 36.45C398.44 37.2167 396.856 37.6 395.223 37.6C393.623 37.6 392.123 37.2 390.723 36.4C389.356 35.6 388.29 34.6167 387.523 33.45L384.973 48H380.473L385.673 18.25C385.773 17.6833 385.823 17.2167 385.823 16.85C385.823 15.2833 385.006 14.5 383.373 14.5L384.973 11ZM394.823 33.6C396.39 33.6 397.823 33.1 399.123 32.1C400.456 31.0667 401.523 29.65 402.323 27.85C403.123 26.05 403.523 23.9833 403.523 21.65C403.523 19.3833 403.006 17.6 401.973 16.3C400.94 14.9667 399.59 14.3 397.923 14.3C396.59 14.3 395.306 14.7167 394.073 15.55C392.873 16.3833 391.84 17.55 390.973 19.05C390.106 20.55 389.49 22.3167 389.123 24.35L388.223 29.4C388.956 30.7333 389.906 31.7667 391.073 32.5C392.24 33.2333 393.49 33.6 394.823 33.6ZM422.501 37.6C420.301 37.6 418.351 37.1333 416.651 36.2C414.985 35.2333 413.668 33.8667 412.701 32.1C411.768 30.3 411.301 28.1833 411.301 25.75C411.301 22.9833 411.868 20.4333 413.001 18.1C414.168 15.7667 415.801 13.9 417.901 12.5C420.035 11.1 422.518 10.4 425.351 10.4C427.285 10.4 428.918 10.7667 430.251 11.5C431.618 12.2333 432.668 13.1833 433.401 14.35C434.135 15.5167 434.501 16.7667 434.501 18.1C434.501 19.9333 434.068 21.45 433.201 22.65C432.335 23.85 431.218 24.7833 429.851 25.45C428.485 26.0833 427.001 26.5333 425.401 26.8C423.835 27.0667 422.335 27.2 420.901 27.2C420.001 27.2 419.101 27.1667 418.201 27.1C417.335 27 416.568 26.9 415.901 26.8C416.168 29 416.951 30.6833 418.251 31.85C419.551 33.0167 421.218 33.6 423.251 33.6C424.918 33.6 426.401 33.3833 427.701 32.95C429.001 32.5167 430.101 32.0833 431.001 31.65L431.401 35.65C430.401 36.1167 429.135 36.5667 427.601 37C426.068 37.4 424.368 37.6 422.501 37.6ZM425.001 14.2C423.435 14.2 422.018 14.6 420.751 15.4C419.485 16.1667 418.435 17.2333 417.601 18.6C416.801 19.9333 416.268 21.4667 416.001 23.2C416.768 23.3333 417.535 23.45 418.301 23.55C419.101 23.6167 419.968 23.65 420.901 23.65C423.701 23.65 425.918 23.2667 427.551 22.5C429.185 21.7 430.001 20.35 430.001 18.45C430.001 17.2833 429.535 16.2833 428.601 15.45C427.701 14.6167 426.501 14.2 425.001 14.2ZM440.48 18.3C440.513 18.1333 440.53 17.95 440.53 17.75C440.563 17.5167 440.58 17.2833 440.58 17.05C440.58 16.1167 440.313 15.4667 439.78 15.1C439.247 14.7 438.547 14.5 437.68 14.5L439.23 11C440.997 11 442.347 11.4333 443.28 12.3C444.247 13.1333 444.73 14.3833 444.73 16.05V17.05C445.697 14.6833 446.93 12.9833 448.43 11.95C449.963 10.9167 451.697 10.4 453.63 10.4C454.397 10.4 455.047 10.4667 455.58 10.6C456.147 10.7 456.613 10.8333 456.98 11L454.98 15.4C454.58 15.2333 454.163 15.1167 453.73 15.05C453.297 14.9833 452.797 14.95 452.23 14.95C451.03 14.95 449.83 15.3833 448.63 16.25C447.463 17.0833 446.397 18.4833 445.43 20.45C444.497 22.4167 443.73 25.1167 443.13 28.55L441.68 37H437.18L440.48 18.3Z" fill="#2F80ED"/>
<path d="M488.634 5.55C486.201 5.55 484.001 6.28333 482.034 7.75C480.067 9.18333 478.501 11.1667 477.334 13.7C476.167 16.2 475.584 19.0833 475.584 22.35C475.584 25.95 476.467 28.7 478.234 30.6C480.001 32.5 482.251 33.45 484.984 33.45C486.551 33.45 487.934 33.2333 489.134 32.8C490.367 32.3667 491.567 31.85 492.734 31.25L493.534 35.55C492.301 36.1167 490.934 36.6 489.434 37C487.934 37.4 486.234 37.6 484.334 37.6C481.601 37.6 479.201 37.0167 477.134 35.85C475.101 34.6833 473.517 33 472.384 30.8C471.251 28.5667 470.684 25.8667 470.684 22.7C470.684 19.7 471.117 16.9167 471.984 14.35C472.884 11.75 474.151 9.48333 475.784 7.55C477.417 5.61667 479.351 4.11667 481.584 3.05C483.851 1.95 486.334 1.4 489.034 1.4C491.001 1.4 492.734 1.66667 494.234 2.2C495.734 2.73333 496.984 3.28333 497.984 3.85L495.834 7.75C494.834 7.11666 493.767 6.6 492.634 6.2C491.534 5.76667 490.201 5.55 488.634 5.55ZM507.949 37.6C505.482 37.6 503.349 37.1 501.549 36.1C499.749 35.1 498.349 33.7167 497.349 31.95C496.382 30.15 495.899 28.1167 495.899 25.85C495.899 22.95 496.482 20.3333 497.649 18C498.849 15.6667 500.515 13.8167 502.649 12.45C504.782 11.0833 507.299 10.4 510.199 10.4C512.665 10.4 514.799 10.9 516.599 11.9C518.399 12.9 519.782 14.2833 520.749 16.05C521.749 17.8167 522.249 19.85 522.249 22.15C522.249 25.0167 521.665 27.6333 520.499 30C519.332 32.3333 517.665 34.1833 515.499 35.55C513.365 36.9167 510.849 37.6 507.949 37.6ZM508.099 33.6C510.099 33.6 511.799 33.1167 513.199 32.15C514.632 31.15 515.732 29.8167 516.499 28.15C517.265 26.4833 517.649 24.6167 517.649 22.55C517.649 21.0167 517.349 19.65 516.749 18.45C516.149 17.2167 515.282 16.2333 514.149 15.5C513.015 14.7667 511.649 14.4 510.049 14.4C508.082 14.4 506.382 14.9 504.949 15.9C503.515 16.8667 502.415 18.1833 501.649 19.85C500.882 21.5167 500.499 23.3833 500.499 25.45C500.499 26.95 500.799 28.3167 501.399 29.55C501.999 30.7833 502.865 31.7667 503.999 32.5C505.132 33.2333 506.499 33.6 508.099 33.6ZM533.028 37.6C531.695 37.6 530.461 37.3 529.328 36.7C528.228 36.1 527.345 35.2667 526.678 34.2C526.011 33.1 525.678 31.8 525.678 30.3C525.678 29.8667 525.695 29.4333 525.728 29C525.761 28.5333 525.811 28.05 525.878 27.55L528.728 11H533.228L530.328 27.45C530.295 27.7833 530.261 28.0833 530.228 28.35C530.195 28.5833 530.178 28.85 530.178 29.15C530.178 30.65 530.611 31.7667 531.478 32.5C532.345 33.2333 533.361 33.6 534.528 33.6C535.795 33.6 537.028 33.2167 538.228 32.45C539.461 31.65 540.545 30.5167 541.478 29.05C542.411 27.5833 543.061 25.8167 543.428 23.75L545.678 11H550.178L546.878 29.95C546.845 30.1167 546.811 30.3167 546.778 30.55C546.778 30.75 546.778 30.9667 546.778 31.2C546.778 32.1333 547.045 32.8 547.578 33.2C548.111 33.5667 548.811 33.75 549.678 33.75L548.128 37.25C546.328 37.25 544.945 36.8167 543.978 35.95C543.045 35.05 542.578 33.6667 542.578 31.8V31.35C540.145 35.5167 536.961 37.6 533.028 37.6ZM557.433 18.3C557.467 18.1333 557.483 17.95 557.483 17.75C557.517 17.5167 557.533 17.2833 557.533 17.05C557.533 16.1167 557.267 15.4667 556.733 15.1C556.2 14.7 555.5 14.5 554.633 14.5L556.183 11C557.95 11 559.3 11.4333 560.233 12.3C561.2 13.1333 561.683 14.3833 561.683 16.05V17.05C562.65 14.6833 563.883 12.9833 565.383 11.95C566.917 10.9167 568.65 10.4 570.583 10.4C571.35 10.4 572 10.4667 572.533 10.6C573.1 10.7 573.567 10.8333 573.933 11L571.933 15.4C571.533 15.2333 571.117 15.1167 570.683 15.05C570.25 14.9833 569.75 14.95 569.183 14.95C567.983 14.95 566.783 15.3833 565.583 16.25C564.417 17.0833 563.35 18.4833 562.383 20.45C561.45 22.4167 560.683 25.1167 560.083 28.55L558.633 37H554.133L557.433 18.3ZM591.097 16.65C590.13 15.9833 589.047 15.4 587.847 14.9C586.68 14.4 585.347 14.15 583.847 14.15C582.28 14.15 581.064 14.4167 580.197 14.95C579.33 15.4833 578.897 16.1833 578.897 17.05C578.897 17.55 579.03 18.0333 579.297 18.5C579.597 18.9333 580.114 19.4 580.847 19.9C581.614 20.4 582.68 21 584.047 21.7C586.314 22.8333 587.997 24.0167 589.097 25.25C590.197 26.45 590.747 27.9333 590.747 29.7C590.747 31.4667 590.28 32.9333 589.347 34.1C588.414 35.2667 587.164 36.15 585.597 36.75C584.03 37.3167 582.264 37.6 580.297 37.6C578.264 37.6 576.464 37.35 574.897 36.85C573.364 36.3167 572.03 35.6333 570.897 34.8L573.447 31.1C574.347 31.8333 575.414 32.45 576.647 32.95C577.88 33.45 579.23 33.7 580.697 33.7C582.364 33.7 583.68 33.3833 584.647 32.75C585.614 32.1167 586.097 31.3333 586.097 30.4C586.097 29.5333 585.73 28.7333 584.997 28C584.297 27.2667 582.914 26.3833 580.847 25.35C579.18 24.5167 577.88 23.7167 576.947 22.95C576.014 22.15 575.364 21.3 574.997 20.4C574.63 19.5 574.447 18.4667 574.447 17.3C574.447 15.9667 574.847 14.7833 575.647 13.75C576.447 12.7167 577.564 11.9 578.997 11.3C580.43 10.7 582.08 10.4 583.947 10.4C585.814 10.4 587.48 10.65 588.947 11.15C590.447 11.6167 591.764 12.1833 592.897 12.85L591.097 16.65ZM605.564 37.6C603.364 37.6 601.414 37.1333 599.714 36.2C598.047 35.2333 596.73 33.8667 595.764 32.1C594.83 30.3 594.364 28.1833 594.364 25.75C594.364 22.9833 594.93 20.4333 596.064 18.1C597.23 15.7667 598.864 13.9 600.964 12.5C603.097 11.1 605.58 10.4 608.414 10.4C610.347 10.4 611.98 10.7667 613.314 11.5C614.68 12.2333 615.73 13.1833 616.464 14.35C617.197 15.5167 617.564 16.7667 617.564 18.1C617.564 19.9333 617.13 21.45 616.264 22.65C615.397 23.85 614.28 24.7833 612.914 25.45C611.547 26.0833 610.064 26.5333 608.464 26.8C606.897 27.0667 605.397 27.2 603.964 27.2C603.064 27.2 602.164 27.1667 601.264 27.1C600.397 27 599.63 26.9 598.964 26.8C599.23 29 600.014 30.6833 601.314 31.85C602.614 33.0167 604.28 33.6 606.314 33.6C607.98 33.6 609.464 33.3833 610.764 32.95C612.064 32.5167 613.164 32.0833 614.064 31.65L614.464 35.65C613.464 36.1167 612.197 36.5667 610.664 37C609.13 37.4 607.43 37.6 605.564 37.6ZM608.064 14.2C606.497 14.2 605.08 14.6 603.814 15.4C602.547 16.1667 601.497 17.2333 600.664 18.6C599.864 19.9333 599.33 21.4667 599.064 23.2C599.83 23.3333 600.597 23.45 601.364 23.55C602.164 23.6167 603.03 23.65 603.964 23.65C606.764 23.65 608.98 23.2667 610.614 22.5C612.247 21.7 613.064 20.35 613.064 18.45C613.064 17.2833 612.597 16.2833 611.664 15.45C610.764 14.6167 609.564 14.2 608.064 14.2ZM637.693 16.65C636.726 15.9833 635.643 15.4 634.443 14.9C633.276 14.4 631.943 14.15 630.443 14.15C628.876 14.15 627.659 14.4167 626.793 14.95C625.926 15.4833 625.493 16.1833 625.493 17.05C625.493 17.55 625.626 18.0333 625.893 18.5C626.193 18.9333 626.709 19.4 627.443 19.9C628.209 20.4 629.276 21 630.643 21.7C632.909 22.8333 634.593 24.0167 635.693 25.25C636.793 26.45 637.343 27.9333 637.343 29.7C637.343 31.4667 636.876 32.9333 635.943 34.1C635.009 35.2667 633.759 36.15 632.193 36.75C630.626 37.3167 628.859 37.6 626.893 37.6C624.859 37.6 623.059 37.35 621.493 36.85C619.959 36.3167 618.626 35.6333 617.493 34.8L620.043 31.1C620.943 31.8333 622.009 32.45 623.243 32.95C624.476 33.45 625.826 33.7 627.293 33.7C628.959 33.7 630.276 33.3833 631.243 32.75C632.209 32.1167 632.693 31.3333 632.693 30.4C632.693 29.5333 632.326 28.7333 631.593 28C630.893 27.2667 629.509 26.3833 627.443 25.35C625.776 24.5167 624.476 23.7167 623.543 22.95C622.609 22.15 621.959 21.3 621.593 20.4C621.226 19.5 621.043 18.4667 621.043 17.3C621.043 15.9667 621.443 14.7833 622.243 13.75C623.043 12.7167 624.159 11.9 625.593 11.3C627.026 10.7 628.676 10.4 630.543 10.4C632.409 10.4 634.076 10.65 635.543 11.15C637.043 11.6167 638.359 12.1833 639.493 12.85L637.693 16.65Z" fill="#2B2F34"/>
</svg>
