<svg width="35" height="15" viewBox="0 0 35 15" fill="none" xmlns="http://www.w3.org/2000/svg">
<path d="M2.29071 1.2H3.62071L2.10871 9.81H6.60271L6.39271 11H0.568713L2.29071 1.2ZM10.8044 11.168C10.1137 11.168 9.51635 11.028 9.01235 10.748C8.50835 10.468 8.11635 10.0807 7.83635 9.586C7.56569 9.082 7.43035 8.51267 7.43035 7.878C7.43035 7.066 7.59369 6.33333 7.92035 5.68C8.25635 5.02667 8.72302 4.50867 9.32035 4.126C9.91769 3.74333 10.6224 3.552 11.4344 3.552C12.125 3.552 12.7224 3.692 13.2264 3.972C13.7304 4.252 14.1177 4.63933 14.3884 5.134C14.6684 5.62867 14.8084 6.198 14.8084 6.842C14.8084 7.64467 14.645 8.37733 14.3184 9.04C13.9917 9.69333 13.525 10.2113 12.9184 10.594C12.321 10.9767 11.6164 11.168 10.8044 11.168ZM10.8464 10.048C11.4064 10.048 11.8824 9.91267 12.2744 9.642C12.6757 9.362 12.9837 8.98867 13.1984 8.522C13.413 8.05533 13.5204 7.53267 13.5204 6.954C13.5204 6.52467 13.4364 6.142 13.2684 5.806C13.1004 5.46067 12.8577 5.18533 12.5404 4.98C12.223 4.77467 11.8404 4.672 11.3924 4.672C10.8417 4.672 10.3657 4.812 9.96435 5.092C9.56302 5.36267 9.25502 5.73133 9.04035 6.198C8.82569 6.66467 8.71835 7.18733 8.71835 7.766C8.71835 8.186 8.80235 8.56867 8.97035 8.914C9.13835 9.25933 9.38102 9.53467 9.69835 9.74C10.0157 9.94533 10.3984 10.048 10.8464 10.048ZM20.4586 3.552C21.0092 3.552 21.4946 3.608 21.9146 3.72C22.3346 3.832 22.6799 3.944 22.9506 4.056L21.7326 11.084C21.6206 11.728 21.4479 12.2553 21.2146 12.666C20.9906 13.0767 20.7246 13.394 20.4166 13.618C20.1179 13.8513 19.8006 14.0147 19.4646 14.108C19.1286 14.2013 18.7972 14.248 18.4706 14.248C17.8359 14.248 17.2946 14.1173 16.8466 13.856C16.4079 13.5947 16.0486 13.2913 15.7686 12.946L16.7486 12.218C17.2059 12.8433 17.8079 13.156 18.5546 13.156C19.0212 13.156 19.4319 12.9833 19.7866 12.638C20.1412 12.2927 20.3932 11.7047 20.5426 10.874L20.7806 9.502C20.5192 9.922 20.1926 10.2767 19.8006 10.566C19.4179 10.8553 18.9839 11 18.4986 11C18.0506 11 17.6212 10.888 17.2106 10.664C16.8092 10.44 16.4779 10.1133 16.2166 9.684C15.9646 9.25467 15.8386 8.72733 15.8386 8.102C15.8386 7.19667 16.0392 6.40333 16.4406 5.722C16.8419 5.04067 17.3926 4.50867 18.0926 4.126C18.7926 3.74333 19.5812 3.552 20.4586 3.552ZM17.1266 7.962C17.1266 8.382 17.2059 8.73667 17.3646 9.026C17.5326 9.306 17.7472 9.52067 18.0086 9.67C18.2699 9.81 18.5452 9.88 18.8346 9.88C19.1892 9.88 19.5252 9.754 19.8426 9.502C20.1599 9.25 20.4352 8.89533 20.6686 8.438C20.9112 7.98067 21.0886 7.444 21.2006 6.828L21.5646 4.798C21.3872 4.742 21.2006 4.7 21.0046 4.672C20.8086 4.63467 20.5799 4.616 20.3186 4.616C19.6932 4.616 19.1379 4.76533 18.6526 5.064C18.1766 5.35333 17.8032 5.75 17.5326 6.254C17.2619 6.758 17.1266 7.32733 17.1266 7.962ZM26.1166 2.474C25.8553 2.474 25.6546 2.39933 25.5146 2.25C25.384 2.09133 25.3186 1.90933 25.3186 1.704C25.3186 1.40533 25.412 1.16733 25.5986 0.99C25.7853 0.803333 26.0186 0.71 26.2986 0.71C26.56 0.71 26.756 0.789333 26.8866 0.947999C27.0266 1.09733 27.0966 1.27467 27.0966 1.48C27.0966 1.76933 27.0033 2.00733 26.8166 2.194C26.63 2.38067 26.3966 2.474 26.1166 2.474ZM25.1786 11H23.9186L25.1926 3.72H26.4526L25.1786 11ZM32.0787 4.658C31.752 4.658 31.3973 4.77933 31.0147 5.022C30.632 5.26467 30.2773 5.64267 29.9507 6.156C29.6333 6.66 29.4047 7.30867 29.2647 8.102L28.7607 11H27.5007L28.7747 3.72H29.9927L29.6847 5.4C29.974 4.84 30.3613 4.392 30.8467 4.056C31.3413 3.72 31.8593 3.552 32.4007 3.552C33.0353 3.552 33.544 3.748 33.9267 4.14C34.3093 4.52267 34.5007 4.994 34.5007 5.554C34.5007 5.78733 34.4727 6.08133 34.4167 6.436L33.6187 11H32.3587L33.1287 6.646C33.1753 6.422 33.2033 6.25867 33.2127 6.156C33.222 6.044 33.2267 5.94133 33.2267 5.848C33.2267 5.484 33.1193 5.19467 32.9047 4.98C32.6993 4.76533 32.424 4.658 32.0787 4.658Z" fill="#2F80ED"/>
</svg>
